  0
SECTION
  2
BLOCKS
  0
ENDSEC
  0
SECTION
  2
ENTITIES
  0
LINE
  8
0
 10
13.6298
 20
-22.5317
 11
11.7322
 21
-16.6915
  0
LINE
  8
0
 10
11.7322
 20
-16.6915
 11
6.02582
 21
-18.5456
  0
LINE
  8
0
 10
6.02582
 20
-18.5456
 11
4.63525
 21
-14.2658
  0
LINE
  8
0
 10
4.63525
 20
-14.2658
 11
24.2705
 21
-7.88596
  0
LINE
  8
0
 10
24.2705
 20
-7.88596
 11
30
 21
0
  0
LINE
  8
0
 10
30
 20
0
 11
25.6408
 21
5.99998
  0
LINE
  8
0
 10
25.6408
 20
5.99998
 11
19.5
 21
5.99998
  0
LINE
  8
0
 10
19.5
 20
5.99998
 11
19.5
 21
0
  0
LINE
  8
0
 10
19.5
 20
0
 11
15
 21
0
  0
LINE
  8
0
 10
15
 20
0
 11
15
 21
20.6457
  0
LINE
  8
0
 10
15
 20
20.6457
 11
9.27051
 21
28.5317
  0
LINE
  8
0
 10
9.27051
 20
28.5317
 11
2.21709
 21
26.2399
  0
LINE
  8
0
 10
2.21709
 20
26.2399
 11
0.319489
 21
20.3997
  0
LINE
  8
0
 10
0.319489
 20
20.3997
 11
6.02582
 21
18.5456
  0
LINE
  8
0
 10
6.02582
 20
18.5456
 11
4.63525
 21
14.2658
  0
LINE
  8
0
 10
4.63525
 20
14.2658
 11
-15
 21
20.6457
  0
LINE
  8
0
 10
-15
 20
20.6457
 11
-24.2705
 21
17.6335
  0
LINE
  8
0
 10
-24.2705
 20
17.6335
 11
-24.2705
 21
10.2171
  0
LINE
  8
0
 10
-24.2705
 20
10.2171
 11
-19.3025
 21
6.60771
  0
LINE
  8
0
 10
-19.3025
 20
6.60771
 11
-15.7758
 21
11.4618
  0
LINE
  8
0
 10
-15.7758
 20
11.4618
 11
-12.1353
 21
8.81677
  0
LINE
  8
0
 10
-12.1353
 20
8.81677
 11
-24.2705
 21
-7.88597
  0
LINE
  8
0
 10
-24.2705
 20
-7.88597
 11
-24.2705
 21
-17.6335
  0
LINE
  8
0
 10
-24.2705
 20
-17.6335
 11
-17.2171
 21
-19.9254
  0
LINE
  8
0
 10
-17.2171
 20
-19.9254
 11
-12.2491
 21
-16.3159
  0
LINE
  8
0
 10
-12.2491
 20
-16.3159
 11
-15.7758
 21
-11.4618
  0
LINE
  8
0
 10
-15.7758
 20
-11.4618
 11
-12.1353
 21
-8.81677
  0
LINE
  8
0
 10
-12.1353
 20
-8.81677
 11
0
 21
-25.5195
  0
LINE
  8
0
 10
0
 20
-25.5195
 11
9.27051
 21
-28.5317
  0
LINE
  8
0
 10
9.27051
 20
-28.5317
 11
13.6298
 21
-22.5317
  0
ENDSEC
  0
SECTION
  2
OBJECTS
  0
DICTIONARY
  0
ENDSEC
  0
EOF
