  0
SECTION
  2
BLOCKS
  0
ENDSEC
  0
SECTION
  2
ENTITIES
  0
LINE
  8
0
 10
23.4641
 20
-28.641
 11
20.6962
 21
-23.8468
  0
LINE
  8
0
 10
20.6962
 20
-23.8468
 11
15.5
 21
-26.8468
  0
LINE
  8
0
 10
15.5
 20
-26.8468
 11
12.5
 21
-21.6506
  0
LINE
  8
0
 10
12.5
 20
-21.6506
 11
35
 21
-8.66026
  0
LINE
  8
0
 10
35
 20
-8.66026
 11
40
 21
0
  0
LINE
  8
0
 10
40
 20
0
 11
36.5359
 21
5.99998
  0
LINE
  8
0
 10
36.5359
 20
5.99998
 11
31
 21
5.99998
  0
LINE
  8
0
 10
31
 20
5.99998
 11
31
 21
0
  0
LINE
  8
0
 10
31
 20
0
 11
25
 21
0
  0
LINE
  8
0
 10
25
 20
0
 11
25
 21
25.9808
  0
LINE
  8
0
 10
25
 20
25.9808
 11
20
 21
34.641
  0
LINE
  8
0
 10
20
 20
34.641
 11
13.0718
 21
34.641
  0
LINE
  8
0
 10
13.0718
 20
34.641
 11
10.3038
 21
29.8468
  0
LINE
  8
0
 10
10.3038
 20
29.8468
 11
15.5
 21
26.8468
  0
LINE
  8
0
 10
15.5
 20
26.8468
 11
12.5
 21
21.6506
  0
LINE
  8
0
 10
12.5
 20
21.6506
 11
-9.99998
 21
34.641
  0
LINE
  8
0
 10
-9.99998
 20
34.641
 11
-20
 21
34.641
  0
LINE
  8
0
 10
-20
 20
34.641
 11
-23.4641
 21
28.641
  0
LINE
  8
0
 10
-23.4641
 20
28.641
 11
-20.6962
 21
23.8468
  0
LINE
  8
0
 10
-20.6962
 20
23.8468
 11
-15.5
 21
26.8468
  0
LINE
  8
0
 10
-15.5
 20
26.8468
 11
-12.5
 21
21.6506
  0
LINE
  8
0
 10
-12.5
 20
21.6506
 11
-35
 21
8.66026
  0
LINE
  8
0
 10
-35
 20
8.66026
 11
-40
 21
0
  0
LINE
  8
0
 10
-40
 20
0
 11
-36.5359
 21
-5.99998
  0
LINE
  8
0
 10
-36.5359
 20
-5.99998
 11
-31
 21
-5.99998
  0
LINE
  8
0
 10
-31
 20
-5.99998
 11
-31
 21
0
  0
LINE
  8
0
 10
-31
 20
0
 11
-25
 21
0
  0
LINE
  8
0
 10
-25
 20
0
 11
-25
 21
-25.9808
  0
LINE
  8
0
 10
-25
 20
-25.9808
 11
-20
 21
-34.641
  0
LINE
  8
0
 10
-20
 20
-34.641
 11
-13.0718
 21
-34.641
  0
LINE
  8
0
 10
-13.0718
 20
-34.641
 11
-10.3038
 21
-29.8468
  0
LINE
  8
0
 10
-10.3038
 20
-29.8468
 11
-15.5
 21
-26.8468
  0
LINE
  8
0
 10
-15.5
 20
-26.8468
 11
-12.5
 21
-21.6506
  0
LINE
  8
0
 10
-12.5
 20
-21.6506
 11
9.99998
 21
-34.641
  0
LINE
  8
0
 10
9.99998
 20
-34.641
 11
20
 21
-34.641
  0
LINE
  8
0
 10
20
 20
-34.641
 11
23.4641
 21
-28.641
  0
ENDSEC
  0
SECTION
  2
OBJECTS
  0
DICTIONARY
  0
ENDSEC
  0
EOF
