  0
SECTION
  2
BLOCKS
  0
ENDSEC
  0
SECTION
  2
ENTITIES
  0
LINE
  8
0
 10
14.8658
 20
-26.3359
 11
13.4317
 21
-21.9223
  0
LINE
  8
0
 10
13.4317
 20
-21.9223
 11
7.72542
 21
-23.7764
  0
LINE
  8
0
 10
7.72542
 20
-23.7764
 11
5.87132
 21
-18.0701
  0
LINE
  8
0
 10
5.87132
 20
-18.0701
 11
25.5066
 21
-11.6902
  0
LINE
  8
0
 10
25.5066
 20
-11.6902
 11
34
 21
0
  0
LINE
  8
0
 10
34
 20
0
 11
29.6407
 21
5.99998
  0
LINE
  8
0
 10
29.6407
 20
5.99998
 11
25
 21
5.99998
  0
LINE
  8
0
 10
25
 20
5.99998
 11
25
 21
0
  0
LINE
  8
0
 10
25
 20
0
 11
19
 21
0
  0
LINE
  8
0
 10
19
 20
0
 11
19
 21
20.6457
  0
LINE
  8
0
 10
19
 20
20.6457
 11
10.5066
 21
32.3359
  0
LINE
  8
0
 10
10.5066
 20
32.3359
 11
3.45314
 21
30.0441
  0
LINE
  8
0
 10
3.45314
 20
30.0441
 11
2.01907
 21
25.6305
  0
LINE
  8
0
 10
2.01907
 20
25.6305
 11
7.72542
 21
23.7764
  0
LINE
  8
0
 10
7.72542
 20
23.7764
 11
5.87132
 21
18.0701
  0
LINE
  8
0
 10
5.87132
 20
18.0701
 11
-13.7639
 21
24.45
  0
LINE
  8
0
 10
-13.7639
 20
24.45
 11
-27.5066
 21
19.9847
  0
LINE
  8
0
 10
-27.5066
 20
19.9847
 11
-27.5066
 21
12.5683
  0
LINE
  8
0
 10
-27.5066
 20
12.5683
 11
-23.7521
 21
9.84053
  0
LINE
  8
0
 10
-23.7521
 20
9.84053
 11
-20.2254
 21
14.6946
  0
LINE
  8
0
 10
-20.2254
 20
14.6946
 11
-15.3713
 21
11.1679
  0
LINE
  8
0
 10
-15.3713
 20
11.1679
 11
-27.5066
 21
-5.53484
  0
LINE
  8
0
 10
-27.5066
 20
-5.53484
 11
-27.5066
 21
-19.9847
  0
LINE
  8
0
 10
-27.5066
 20
-19.9847
 11
-20.4532
 21
-22.2765
  0
LINE
  8
0
 10
-20.4532
 20
-22.2765
 11
-16.6987
 21
-19.5487
  0
LINE
  8
0
 10
-16.6987
 20
-19.5487
 11
-20.2254
 21
-14.6946
  0
LINE
  8
0
 10
-20.2254
 20
-14.6946
 11
-15.3713
 21
-11.1679
  0
LINE
  8
0
 10
-15.3713
 20
-11.1679
 11
-3.23607
 21
-27.8707
  0
LINE
  8
0
 10
-3.23607
 20
-27.8707
 11
10.5066
 21
-32.3359
  0
LINE
  8
0
 10
10.5066
 20
-32.3359
 11
14.8658
 21
-26.3359
  0
ENDSEC
  0
SECTION
  2
OBJECTS
  0
DICTIONARY
  0
ENDSEC
  0
EOF
